<?xml version="1.0" standalone="no"?><!DOCTYPE svg PUBLIC "-//W3C//DTD SVG 1.1//EN" "http://www.w3.org/Graphics/SVG/1.1/DTD/svg11.dtd"><svg t="1624614680226" class="icon" viewBox="0 0 1710 1024" version="1.1" xmlns="http://www.w3.org/2000/svg" p-id="4527" xmlns:xlink="http://www.w3.org/1999/xlink" width="333.984375" height="200"><defs><style type="text/css"></style></defs><path d="M617.344 569.07264l67.33824-67.33824 14.48448 14.47936-67.33824 67.33824z" fill="#13227a" p-id="4528"></path><path d="M617.70752 516.57728l14.48448-14.47936 67.33824 67.33824-14.48448 14.47936zM869.70368 568.9344l67.33824-67.33312 14.48448 14.47936-67.34336 67.33824z" fill="#13227a" p-id="4529"></path><path d="M869.7088 516.82304l14.47936-14.47936 67.33824 67.33824-14.47936 14.47936zM458.24 675.84H144.384v-73.728L271.36 377.856l53.248 30.208L208.384 614.4h249.856z" fill="#13227a" p-id="4530"></path><path d="M328.704 499.712h61.44v269.824h-61.44zM1442.816 675.84h-313.344v-73.728l126.464-224.256 53.248 30.208L1192.96 614.4h249.856z" fill="#13227a" p-id="4531"></path><path d="M1313.28 499.712h61.44v269.824h-61.44zM784.384 812.032c-132.608 0-240.128-108.032-240.128-240.128s108.032-240.128 240.128-240.128 240.128 108.032 240.128 240.128-108.032 240.128-240.128 240.128z m0-434.688c-107.008 0-194.048 87.04-194.048 194.048s87.04 194.048 194.048 194.048 194.048-87.04 194.048-194.048-87.04-194.048-194.048-194.048z" fill="#13227a" p-id="4532"></path><path d="M927.744 754.688c-61.952 0-133.632-14.336-204.288-40.96-80.384-30.72-151.04-73.728-198.144-121.856C473.6 539.136 454.144 485.888 471.04 441.344c15.36-40.448 58.88-67.072 122.368-74.752l5.632 45.568c-46.08 5.632-75.776 22.016-84.992 45.568-9.728 26.112 6.144 62.976 44.032 101.888 43.008 43.52 107.52 82.944 181.76 111.104 158.208 59.904 290.304 43.008 310.272-9.216 7.68-20.992-1.024-49.152-24.576-79.36l36.352-28.16c34.304 44.032 45.056 87.04 31.232 123.904-16.896 44.544-66.56 71.68-140.288 76.288-8.192 0.512-16.384 0.512-25.088 0.512z" fill="#13227a" p-id="4533"></path><path d="M747.008 611.328h70.656v20.48h-70.656zM424.448 320V409.6M414.208 320h20.48V409.6h-20.48zM469.504 364.544H379.904" fill="#13227a" p-id="4534"></path><path d="M379.904 354.304h89.6v20.48H379.904zM993.792 201.728v89.6M983.552 201.728h20.48v89.6h-20.48zM1038.848 246.272h-89.6" fill="#13227a" p-id="4535"></path><path d="M949.248 236.032h89.6v20.48h-89.6z" fill="#13227a" p-id="4536"></path><path d="M592.384 287.744c-7.68 0-15.36-2.56-21.504-7.68-6.656-5.632-11.264-13.824-11.776-22.528-1.024-8.704 2.048-17.408 7.68-24.576 5.632-6.656 13.824-11.264 22.528-11.776 8.704-1.024 17.408 2.048 24.576 7.68s11.264 13.824 11.776 22.528c1.024 8.704-2.048 17.408-7.68 24.576-6.656 7.68-15.872 11.776-25.6 11.776z m0-46.592h-1.024c-3.584 0.512-6.656 2.048-8.704 4.608s-3.072 6.144-3.072 9.728c0.512 3.584 2.048 6.656 4.608 8.704 5.632 4.608 13.824 3.584 18.432-1.536 2.048-2.56 3.072-6.144 3.072-9.728-0.512-3.584-2.048-6.656-4.608-8.704-3.072-2.048-5.632-3.072-8.704-3.072z" fill="#13227a" p-id="4537"></path><path d="M864.768 313.344c-7.68 0-15.36-2.56-21.504-7.68-6.656-5.632-11.264-13.824-11.776-22.528-1.024-8.704 2.048-17.408 7.68-24.576 5.632-6.656 13.824-11.264 22.528-11.776 8.704-1.024 17.408 2.048 24.576 7.68s11.264 13.824 11.776 22.528c1.024 8.704-2.048 17.408-7.68 24.576-6.656 7.68-15.872 11.776-25.6 11.776z m0-46.592h-1.024c-3.584 0.512-6.656 2.048-8.704 4.608-2.048 2.56-3.072 6.144-3.072 9.728 0.512 3.584 2.048 6.656 4.608 8.704 5.632 4.608 13.824 3.584 18.432-1.536 2.048-2.56 3.072-6.144 3.072-9.728-0.512-3.584-2.048-6.656-4.608-8.704-3.072-2.048-5.632-3.072-8.704-3.072z" fill="#13227a" p-id="4538"></path><path d="M1101.312 509.44c-7.68 0-15.36-2.56-21.504-7.68-6.656-5.632-11.264-13.824-11.776-22.528-1.024-8.704 2.048-17.408 7.68-24.576 5.632-6.656 13.824-11.264 22.528-11.776 8.704-1.024 17.408 2.048 24.576 7.68s11.264 13.824 11.776 22.528c1.024 8.704-2.048 17.408-7.68 24.576-6.656 7.68-15.872 11.776-25.6 11.776z m0-46.592h-1.024c-3.584 0.512-6.656 2.048-8.704 4.608-2.048 2.56-3.072 6.144-3.072 9.728 0.512 3.584 2.048 6.656 4.608 8.704 5.632 4.608 13.824 3.584 18.432-1.536 2.048-2.56 3.072-6.144 3.072-9.728-0.512-3.584-2.048-6.656-4.608-8.704-3.072-2.048-5.632-3.072-8.704-3.072z" fill="#13227a" p-id="4539"></path></svg>