<?xml version="1.0" standalone="no"?><!DOCTYPE svg PUBLIC "-//W3C//DTD SVG 1.1//EN" "http://www.w3.org/Graphics/SVG/1.1/DTD/svg11.dtd"><svg t="1624540506415" class="icon" viewBox="0 0 1024 1024" version="1.1" xmlns="http://www.w3.org/2000/svg" p-id="21805" xmlns:xlink="http://www.w3.org/1999/xlink" width="200" height="200"><defs><style type="text/css"></style></defs><path d="M632.7 124.1c-68.8-23.5-130.5-22.7-170.1-17.9-43.3 5.3-70.5 16.3-70.8 16.4l-15.3-36.9c1.3-0.5 31.5-12.9 79.7-19 44.1-5.5 112.9-6.7 189.5 19.6l-13 37.8z" fill="#515151" p-id="21806"></path><path d="M763.2 960.2H258.7C194.3 960.2 142 908 142 843.6V465.1c0-202.7 164.3-367 367-367 205.4 0 372 166.5 372 372v372.4c-0.1 65-52.8 117.7-117.8 117.7z" fill="#00A4FF" p-id="21807"></path><path d="M704 865.7H319c-27.9 0-50.6-22.7-50.6-50.6v-60.6c0-27.9 22.7-50.6 50.6-50.6h385c27.9 0 50.6 22.7 50.6 50.6v60.6c0 27.9-22.7 50.6-50.6 50.6z" fill="#FF4545" p-id="21808"></path><path d="M335.2 384.7h355.6V419H335.2z" fill="#f6ef37" p-id="21809"></path><path d="M880.9 831.7V576H928v208.6c0 26.1-21.1 47.1-47.1 47.1zM140.4 831.7c-26 0-47.1-21.1-47.1-47.1V576h47.1v255.7z" fill="#FF4545" p-id="21810"></path></svg>