<?xml version="1.0" standalone="no"?><!DOCTYPE svg PUBLIC "-//W3C//DTD SVG 1.1//EN" "http://www.w3.org/Graphics/SVG/1.1/DTD/svg11.dtd"><svg t="1624552484088" class="icon" viewBox="0 0 1024 1024" version="1.1" xmlns="http://www.w3.org/2000/svg" p-id="3703" xmlns:xlink="http://www.w3.org/1999/xlink" width="200" height="200"><defs><style type="text/css"></style></defs><path d="M753.466667 990.4zM43.066667 990.4zM983.466667 0.933333zM495.066667 1021.866667c-249.6 0-452-202.266667-452-452 0-188.933333 116-350.8 280.533333-418.266667v0.133333c4.8-1.733333 10.133333-2.666667 15.6-2.666666 25.733333 0 46.8 20.933333 46.8 46.8 0 20.266667-13.066667 37.733333-31.2 44.133333-128.266667 54.4-218.133333 181.6-218.133333 329.866667 0 198 160.533333 358.533333 358.533333 358.533333 198 0 358.533333-160.533333 358.533333-358.533333 0-148.133333-89.866667-275.333333-218.266666-329.866667-18.133333-6.4-31.2-23.733333-31.2-44.133333 0-25.866667 20.933333-46.8 46.8-46.8 5.466667 0 10.666667 0.933333 15.6 2.666666v-0.133333C831.333333 219.066667 947.2 380.933333 947.2 569.866667c-0.133333 249.733333-202.533333 452-452.133333 452z m0-483.2c-25.733333 0-46.8-20.933333-46.8-46.8V71.066667c0-25.733333 20.933333-46.8 46.8-46.8 25.866667 0 46.8 20.933333 46.8 46.8v420.666666c0 26-20.933333 46.933333-46.8 46.933334z" p-id="3704" fill="#000"></path></svg>