<?xml version="1.0" standalone="no"?><!DOCTYPE svg PUBLIC "-//W3C//DTD SVG 1.1//EN" "http://www.w3.org/Graphics/SVG/1.1/DTD/svg11.dtd"><svg t="1624603035693" class="icon" viewBox="0 0 1024 1024" version="1.1" xmlns="http://www.w3.org/2000/svg" p-id="9797" xmlns:xlink="http://www.w3.org/1999/xlink" width="200" height="200"><defs><style type="text/css"></style></defs><path d="M906.22201066 334.88371465a458.94614299 458.94614299 0 0 0-98.89147601-146.71266698A471.805238 471.805238 0 0 0 660.06872468 88.73042867a458.80885701 458.80885701 0 0 0-180.02733302-36.60952399 463.61385701 463.61385701 0 0 0-231.09761901 61.82433302 33.45195202 33.45195202 0 1 0 33.31466605 58.02609596 395.016762 395.016762 0 1 1 0 684.68961899 33.45195202 33.45195202 0 1 0-33.31466605 58.02609502 463.61385701 463.61385701 0 0 0 231.09761901 61.82433302 458.80885701 458.80885701 0 0 0 180.02733302-36.60952399 467.22904798 467.22904798 0 0 0 147.26180997-98.89147601 461.00542897 461.00542897 0 0 0 98.89147601-506.26395202z" p-id="9798" fill="#515151"></path><path d="M377.90081969 703.5416187a33.72652399 33.72652399 0 0 0 0 47.31780997 33.72652399 33.72652399 0 0 0 47.31780997 0l212.28947602-212.28947602a35.32819003 35.32819003 0 0 0 6.45242897-9.15238099l0.54914205-1.60166698c0-0.54914299 0.54914299-1.05252398 0.54914299-1.60166698s0.54914299-0.54914299 0.54914299-1.05252305v-0.54914299c0-0.54914299 0-0.54914299 0.549143-1.05252399V504.75190468c0-0.54914299 0-0.54914299-0.549143-1.05252399v-0.54914299c0-0.54914299 0-0.54914299-0.54914299-1.05252305V501.54857166c0-0.54914299 0-0.54914299-0.54914299-1.05252399v-0.54914299c0-0.54914299-0.54914299-0.54914299-0.54914205-1.05252399V498.3452377c0-0.54914299-0.54914299-0.54914299-0.54914299-1.05252305v-0.54914299l-0.54914299-0.54914299a0.54914299 0.54914299 0 0 0-0.54914299-0.54914299c0-0.54914299-0.54914299-0.54914299-0.549143-1.05252399a0.50338099 0.50338099 0 0 0-0.54914299-0.54914299l-0.54914299-0.54914205-0.54914205-0.54914299-0.54914299-0.549143-1.05252399-1.05252399-212.838619-212.838619A33.45195202 33.45195202 0 1 0 378.3584387 325.8228567l155.31590498 155.31590499H85.43648667a33.13161901 33.13161901 0 0 0-33.31466698 33.31466698 33.49771402 33.49771402 0 0 0 33.31466698 33.31466697h447.68871402z" p-id="9799" fill="#000"></path></svg>